<?xml version="1.0" encoding="UTF-8"?>
<svg width="2271.4375" height="1665.7122" xmlns="http://www.w3.org/2000/svg" xmlns:xlink="http://www.w3.org/1999/xlink">
 <title>cartoonbackgroundimage</title>
 <defs>
  <clipPath id="clipPath4234" clipPathUnits="userSpaceOnUse">
   <path fill="#9cf000" stroke-width="3" stroke-linecap="round" stroke-linejoin="round" stroke-miterlimit="4" stroke-dashoffset="0" id="path4236" d="m-1805.498291,-69.847778c-11.655518,0 -21.0625,5.752151 -21.0625,12.875l0,830.03125c73.681396,-9.907227 153.852295,-15.0625 237.156128,-15.0625c343.817139,0 484.305786,44.117554 822.84375,235.71875c342.857208,194.045776 775.268097,461.424072 -891.40625,464.28125c-60.104614,0.103271 -116.484009,-9.398071 -168.593628,-25.937378l0,150.96875c0,7.122803 9.406982,12.843994 21.0625,12.843628l2229.343658,0c11.655518,0 21.03125,-5.720825 21.03125,-12.843628l0,-640.000122l0,-67.40625l0,-932.59375c0,-7.122849 -9.375732,-12.875 -21.03125,-12.875l-2229.343658,0z"/>
  </clipPath>
  <clipPath id="clipPath4253" clipPathUnits="userSpaceOnUse">
   <path fill="url(#linearGradient4257)" stroke-width="3" stroke-linecap="round" stroke-linejoin="round" stroke-miterlimit="4" stroke-dashoffset="0" id="path4255" d="m-831.212646,-92.70491c-11.65564,0 -21.0625,5.752136 -21.0625,12.874992l0,830.031212l0,169.96875l0,640c0,7.122925 9.406982,12.843994 21.0625,12.84375l2229.343872,0c11.655273,0 21.03125,-5.720947 21.03125,-12.84375l0,-640l0,-67.40625l0,-932.593712c0,-7.122856 -9.375977,-12.874992 -21.03125,-12.874992l-2229.343872,0z"/>
  </clipPath>
  <filter id="filter4635" height="2.260247" y="-0.630123" width="1.382322" x="-0.191161">
   <feGaussianBlur id="feGaussianBlur4637" stdDeviation="40.507936"/>
  </filter>
  <filter id="filter5183" height="1.595822" y="-0.297911" width="1.260664" x="-0.130332">
   <feGaussianBlur id="feGaussianBlur5185" stdDeviation="24.825904"/>
  </filter>
  <clipPath id="clipPath5381" clipPathUnits="userSpaceOnUse">
   <path opacity="0.893333" fill="#fdfdfd" stroke-width="5" stroke-linecap="round" stroke-linejoin="round" stroke-miterlimit="4" stroke-dashoffset="0" id="path5383" d="m864.8797,186.029419c-48.512512,0 -90.277039,11.929932 -108.884583,29.029007c-4.26886,-0.29483 -8.609497,-0.457611 -13.019836,-0.457581c-57.891602,0 -104.884521,26.515869 -104.884521,59.185257c0,28.591522 35.995605,52.464569 83.786011,57.979889c14.848328,30.919434 81.280579,54.263428 160.924805,54.263428c90.548401,0 164.042542,-30.168213 164.042542,-67.34375l-0.117676,-1.082581c29.33374,-9.232056 48.520508,-24.501526 48.520508,-41.774597l-0.421509,-4.386139c-5.100586,-26.509354 -53.967407,-46.620636 -113.325745,-46.64064c-11.480103,-22.433395 -59.405518,-38.772324 -116.619995,-38.772293z"/>
  </clipPath>
  <filter id="filter5445" height="1.437617" y="-0.218809" width="1.191452" x="-0.095726">
   <feGaussianBlur id="feGaussianBlur5447" stdDeviation="18.234042"/>
  </filter>
  <clipPath id="clipPath5495" clipPathUnits="userSpaceOnUse">
   <path opacity="0.893333" fill="#fdfdfd" stroke-width="5" stroke-linecap="round" stroke-linejoin="round" stroke-miterlimit="4" stroke-dashoffset="0" d="m1899.165283,94.600868c-48.512451,0 -90.276978,11.929924 -108.884521,29.028992c-4.268921,-0.294823 -8.609497,-0.457611 -13.019897,-0.457573c-57.891602,0 -104.884399,26.515854 -104.884399,59.185242c0,28.591507 35.995483,52.464569 83.786011,57.979889c14.848267,30.919449 81.280518,54.263412 160.924805,54.263443c90.54834,0 164.042603,-30.168243 164.042603,-67.343796l-0.117676,-1.082565c29.33374,-9.23204 48.520752,-24.501541 48.520752,-41.774582l-0.421875,-4.386139c-5.100586,-26.509354 -53.967285,-46.620636 -113.325806,-46.640625c-11.480103,-22.433403 -59.405396,-38.772331 -116.619995,-38.772285z" id="path5497"/>
  </clipPath>
  <filter id="filter5575" height="1.438104" y="-0.219052" width="1.191665" x="-0.095832">
   <feGaussianBlur id="feGaussianBlur5577" stdDeviation="18.254341"/>
  </filter>
  <clipPath id="clipPath5671" clipPathUnits="userSpaceOnUse">
   <rect transform="translate(731.438, 201.181) translate(66.6667, 29.6296)" fill="url(#linearGradient5675)" stroke-width="3" stroke-linecap="round" stroke-linejoin="round" stroke-miterlimit="4" stroke-dashoffset="0" ry="21.597332" rx="35.341087" y="-243.84096" x="-791.15668" height="1722.9872" width="3815.5286" id="rect5673"/>
  </clipPath>
  <clipPath id="clipPath5677" clipPathUnits="userSpaceOnUse">
   <rect transform="translate(731.438, 201.181) translate(66.6667, 29.6296)" fill="url(#linearGradient5681)" stroke-width="3" stroke-linecap="round" stroke-linejoin="round" stroke-miterlimit="4" stroke-dashoffset="0" id="rect5679" width="3599.5803" height="1625.4709" x="-782.60162" y="-231.60446" rx="33.340881" ry="20.374983"/>
  </clipPath>
  <linearGradient id="linearGradient4641">
   <stop stop-color="#fcaf3e" id="stop4643" offset="0"/>
   <stop stop-color="#ffce86" id="stop4645" offset="1"/>
  </linearGradient>
  <linearGradient id="linearGradient4368">
   <stop stop-color="#69d007" offset="0" id="stop4370"/>
   <stop stop-color="#4e9a06" stop-opacity="0" offset="1" id="stop4372"/>
  </linearGradient>
  <linearGradient id="linearGradient4336">
   <stop stop-color="#458905" id="stop4338" offset="0"/>
   <stop stop-color="#4e9a06" stop-opacity="0" id="stop4340" offset="1"/>
  </linearGradient>
  <linearGradient id="linearGradient4328">
   <stop stop-color="#8f5902" id="stop4330" offset="0"/>
   <stop stop-color="#724701" id="stop4332" offset="1"/>
  </linearGradient>
  <linearGradient id="linearGradient4238">
   <stop stop-color="#55a800" id="stop4240" offset="0"/>
   <stop stop-color="#74e400" id="stop4242" offset="1"/>
  </linearGradient>
  <linearGradient id="linearGradient4191">
   <stop stop-color="#007900" id="stop4193" offset="0"/>
   <stop stop-color="#008400" stop-opacity="0" id="stop4195" offset="1"/>
  </linearGradient>
  <linearGradient id="linearGradient4180">
   <stop stop-color="#00a400" id="stop4182" offset="0"/>
   <stop stop-color="#00a400" stop-opacity="0" id="stop4184" offset="1"/>
  </linearGradient>
  <linearGradient id="linearGradient4103">
   <stop stop-color="#00acf4" id="stop4105" offset="0"/>
   <stop stop-color="#a6e5ff" id="stop4107" offset="1"/>
  </linearGradient>
  <linearGradient y2="1.000095" x2="0.474214" y1="-0.189419" x1="0.474214" id="linearGradient4109" xlink:href="#linearGradient4103"/>
  <linearGradient y2="0.524213" x2="0.490848" y1="-0.488396" x1="0.492076" id="linearGradient4200" xlink:href="#linearGradient4191"/>
  <linearGradient y2="978.1759" x2="345.71426" y1="-241.92688" x1="345.71426" gradientTransform="matrix(1,0,0,1,-120.83761596679688,-45.06060791015625)" gradientUnits="userSpaceOnUse" id="linearGradient4257" xlink:href="#linearGradient4103"/>
  <linearGradient y2="0.581634" x2="0.357288" y1="-0.120596" x1="0.357288" id="linearGradient4261" xlink:href="#linearGradient4180"/>
  <linearGradient y2="1.425902" x2="0.510673" y1="-0.070132" x1="0.5" id="linearGradient4263" xlink:href="#linearGradient4238"/>
  <linearGradient y2="0.534215" x2="0.655669" y1="0.904874" x1="0.762444" id="linearGradient4382" xlink:href="#linearGradient4336"/>
  <linearGradient y2="0.500003" x2="0.552102" y1="0.000003" x1="0.439151" id="linearGradient4384" xlink:href="#linearGradient4368"/>
  <linearGradient y2="0.815603" x2="0.683022" y1="0.000304" x1="0.109723" id="linearGradient4386" xlink:href="#linearGradient4368"/>
  <linearGradient y2="0.180444" x2="0.659074" y1="0.751565" x1="0.037882" id="linearGradient4388" xlink:href="#linearGradient4336"/>
  <linearGradient y2="0.499999" x2="0.999994" y1="0.499999" x1="0.499999" id="linearGradient4390" xlink:href="#linearGradient4328"/>
  <radialGradient gradientUnits="userSpaceOnUse" gradientTransform="matrix(0.49249106645584106,0.25061923265457153,-0.19684067368507385,0.3868110179901123,1465.84765625,269.4665222167969)" r="284.19949" fy="-27.637817" fx="-640" cy="-27.637817" cx="-640" id="radialGradient4647" xlink:href="#linearGradient4641"/>
  <linearGradient y2="978.1759" x2="345.71426" y1="-241.92688" x1="345.71426" gradientTransform="matrix(1.6797926,0,0,1.6797926,437.49164,-163.81932)" gradientUnits="userSpaceOnUse" id="linearGradient5675" xlink:href="#linearGradient4103"/>
  <linearGradient y2="978.1759" x2="345.71426" y1="-241.92688" x1="345.71426" gradientTransform="matrix(1.584721,0,0,1.584721,376.50863,-156.11183)" gradientUnits="userSpaceOnUse" id="linearGradient5681" xlink:href="#linearGradient4103"/>
 </defs>
 <metadata id="metadata7">image/svg+xmlSummer LandscapeCarlos AsmatsummergreenlandscapetreecloudsA simple summer landscape featuring green grass, a blue sky and white clouds.</metadata>
 <g>
  <title>Layer 1</title>
  <g display="inline" id="layer2">
   <rect fill="url(#linearGradient4109)" stroke-width="3" stroke-linecap="round" stroke-linejoin="round" stroke-miterlimit="4" stroke-dashoffset="0" ry="12.857142" rx="21.03896" y="0" x="0.00891" height="1025.7142" width="2271.4285" id="rect2160"/>
   <path fill="url(#linearGradient4263)" stroke-width="3" stroke-linecap="round" stroke-linejoin="round" stroke-miterlimit="4" stroke-dashoffset="0" id="path4202" d="m1211.4375,804.96228c-215.17157,0 -379.221558,34.240723 -506.1875,86.40625c-139.692749,-48.926025 -270.224243,-63.53125 -468.09375,-63.53125c-83.302917,0 -163.475647,5.155029 -237.15625,15.0625l0,809.96875c0,7.122925 9.406921,12.84375 21.0625,12.84375l2229.34375,0c11.655518,0 21.03125,-5.720947 21.03125,-12.84375l0,-707.40625c-167.743164,0.928467 -334.178711,3.173828 -499.125,6.71875c-168.047607,-63.883789 -304.033447,-147.21875 -560.875,-147.21875z"/>
   <path fill="url(#linearGradient4200)" stroke-width="3" stroke-linecap="round" stroke-linejoin="round" stroke-miterlimit="4" stroke-dashoffset="0" clip-path="url(#clipPath4234)" id="path4113" d="m1960.008789,1006.40033c273.656006,51.378845 3923.446289,427.816101 -745.714111,375.714417c-4661.07959,-52.101807 -787.936462,-313.383789 -700.000061,-381.428772c140,-108.331421 353.325745,-195.714233 697.142883,-195.714233c343.817139,0 471.074219,149.328613 748.571289,201.428589z"/>
   <path fill="url(#linearGradient4261)" stroke-width="3" stroke-linecap="round" stroke-linejoin="round" stroke-miterlimit="4" stroke-dashoffset="0" clip-path="url(#clipPath4253)" id="path4111" d="m1060.008911,1063.543091c342.857178,194.045776 775.245605,461.428711 -891.428574,464.285889c-343.816589,0.590332 -565.515335,-312.666016 -565.714249,-464.285889c-0.19043,-148.015076 290.468582,-235.714172 634.28569,-235.714172c343.817093,0 484.319046,44.113037 822.857132,235.714172z"/>
  </g>
  <path opacity="0.031111" fill="#000000" stroke-width="5" stroke-linecap="round" stroke-linejoin="round" stroke-miterlimit="4" stroke-dashoffset="0" filter="url(#filter5183)" id="path5189" d="m884.306152,1070.050537c67.91687,0 126.386719,11.929932 152.437134,29.029053c5.976318,-0.294922 12.053223,-0.457642 18.227539,-0.457642c81.047607,0 146.837158,26.515869 146.837158,59.185303c0,28.591431 -50.393433,52.464478 -117.299438,57.979858c-20.787476,30.919434 -113.79187,54.263428 -225.292908,54.263428c-126.766663,0 -229.657715,-30.168213 -229.657715,-67.34375l0.164795,-1.08252c-41.066833,-9.232178 -67.928284,-24.501587 -67.928284,-41.774658l0.590271,-4.386108c7.140747,-26.509399 75.553711,-46.620605 158.654724,-46.640625c16.072021,-22.433472 83.167053,-38.772339 163.266724,-38.772339z"/>
  <g transform="matrix(0.545965, 0, 0, 0.545965, 940.019, 86.9666)" id="g4374">
   <path fill="#4e9a06" stroke-width="3" stroke-linecap="round" stroke-linejoin="round" stroke-miterlimit="4" stroke-dashoffset="0" d="m1822.443481,665.704285c-94.875244,0 -178.407593,43.14325 -226.937378,108.40625c-152.312256,26.53241 -267.34375,145.771301 -267.34375,288.749939c0,76.827759 33.231445,146.791626 87.59375,199.218628c-1.229736,10.579712 -1.875,21.337158 -1.875,32.21875c0,164.022949 143.360107,297.125 319.999878,297.125c87.112549,0 166.122803,-32.382813 223.84375,-84.875c39.230469,17.85498 82.358643,27.75 127.593628,27.75c181.371582,0 328.5625,-158.746826 328.5625,-354.3125c0,-195.565552 -147.190918,-354.281067 -328.5625,-354.281067c-2.302246,0 -4.614746,0.042847 -6.90625,0.09375c-37.267212,-93.218933 -137.832397,-160.09375 -255.968628,-160.09375z" id="path4314"/>
   <path fill="url(#linearGradient4382)" stroke-width="3" stroke-linecap="round" stroke-linejoin="round" stroke-miterlimit="4" stroke-dashoffset="0" id="path4305" d="m2413.876465,1179.998657a328.571442,354.285706 0 1 1 -657.142944,0a328.571442,354.285706 0 1 1 657.142944,0z"/>
   <path fill="url(#linearGradient4384)" stroke-width="3" stroke-linecap="round" stroke-linejoin="round" stroke-miterlimit="4" stroke-dashoffset="0" id="path4301" d="m2093.876465,905.713135a271.428558,240 0 1 1 -542.857178,0a271.428558,240 0 1 1 542.857178,0z"/>
   <path fill="url(#linearGradient4386)" stroke-width="3" stroke-linecap="round" stroke-linejoin="round" stroke-miterlimit="4" stroke-dashoffset="0" id="path4303" d="m1991.019287,1062.855957a331.428558,294.285706 0 1 1 -662.856934,0a331.428558,294.285706 0 1 1 662.856934,0z"/>
   <path opacity="0.311111" fill="url(#linearGradient4388)" stroke-width="3" stroke-linecap="round" stroke-linejoin="round" stroke-miterlimit="4" stroke-dashoffset="0" id="path4307" d="m2053.876465,1294.284424a320,297.142853 0 1 1 -639.999756,0a320,297.142853 0 1 1 639.999756,0z"/>
   <path fill="url(#linearGradient4390)" stroke-width="3" stroke-linecap="round" stroke-linejoin="round" stroke-miterlimit="4" stroke-dashoffset="0" d="m1718.346069,1417.512817c167.685303,278.802124 150.512695,-74.751221 238.395996,44.446777c-61.619385,349.512817 50.507568,480.832642 12.121826,848.528442c-123.23877,44.446777 -110.106689,-46.467041 -335.370483,-24.243896c-7.071289,-341.431396 82.832397,-626.294556 84.852661,-868.731323z" id="rect4323"/>
  </g>
  <path opacity="0.698" fill="#1e9e00" stroke-width="3" stroke-linecap="round" stroke-linejoin="round" stroke-miterlimit="4" stroke-dashoffset="0" d="m248.004761,1325.029541c-4.183411,1.426636 -5.229797,4.703003 -8.74231,9.602417c-4.570862,8.407837 -13.829285,33.589233 -12.787598,37.706787c1.380615,7.417358 13.011841,-34.612305 21.529907,-47.309204zm-78.536438,18.334839c9.92865,30.301758 10.86322,32.571777 18.606567,32.132202c-1.64447,-5.591309 -6.365417,-10.145142 -9.678284,-15.45813c-3.531128,-5.663696 -5.450562,-16.255127 -8.928284,-16.674072zm34.898926,1.104858c-11.30011,19.798462 -12.507019,26.928955 -10.603638,29.158569c3.480225,2.152222 2.72052,-3.465332 10.603638,-29.158569zm21.140747,4.245605c-2.781921,-0.759644 -4.808533,6.097778 -5.914307,11.706665c-2.823303,14.321167 -2.855286,12.254395 -0.952148,13.46814c2.62384,1.67334 2.607361,-12.939453 6.866455,-25.174805zm18.712036,-1.315063c-2.911804,0.139771 -4.426392,5.941162 -6.468201,11.296021c-2.050659,10.210938 -8.019348,16.553711 -3.809814,16.94165c4.185181,0.38562 7.080688,-16.118286 10.278015,-28.237671zm-31.208374,3.927856c-9.182617,16.418457 -11.146606,21.454346 -7.458313,22.132324c2.37793,0.437012 2.565613,-3.574951 5.280457,-10.320435c1.748657,-4.345093 3.928894,-8.152466 2.177856,-11.81189z" id="path7786"/>
  <g id="g7640">
   <path fill="#ad7fa8" stroke-width="3" stroke-linecap="round" stroke-linejoin="round" stroke-miterlimit="4" stroke-dashoffset="0" id="path4271" d="m362.513458,1542.507324a30.000006,16.285717 0 1 1 -60,0a30.000006,16.285717 0 1 1 60,0z"/>
   <path fill="#ce5c00" stroke-width="3" stroke-linecap="round" stroke-linejoin="round" stroke-miterlimit="4" stroke-dashoffset="0" d="m243.463806,1383.078247c-1.718811,1.157715 -5.959991,0.098755 -8.367004,0.481201c-2.486664,0.395142 -5.170746,3.605713 -7.690521,3.136353c-2.439087,-0.454346 -3.998749,-4.030396 -5.78009,-5.154053c-1.840302,-1.161011 -5.577148,-0.928223 -6.378571,-2.485229c-0.775757,-1.50708 2.53775,-3.949097 3.203461,-5.474731c0.687805,-1.575928 -1.082916,-4.22937 0.770813,-5.353638c1.794342,-1.088135 5.754608,0.424072 8.130951,0.003296c2.454956,-0.434814 5.074554,-3.04834 7.613708,-2.661621c2.457794,0.37439 4.078796,3.056274 5.880371,4.134644c1.861176,1.114014 6.874542,1.442627 7.726532,2.959839c0.824799,1.46875 -4.220276,3.188599 -4.728516,4.730713c-0.525085,1.59314 1.394562,4.487183 -0.381134,5.683228z" id="path5606"/>
   <path fill="#f57900" stroke-width="3" stroke-linecap="round" stroke-linejoin="round" stroke-miterlimit="4" stroke-dashoffset="0" d="m194.649078,1419.63562c-2.155655,1.178711 -6.272186,1.393433 -9.333038,1.806519c-3.060944,0.413208 -7.542542,2.394897 -10.556,1.910889c-3.013458,-0.484131 -5.758881,-2.868652 -7.953445,-4.004517c-2.194656,-1.135864 -6.177567,-2.290161 -7.10643,-3.845337c-0.928848,-1.555176 2.057251,-3.950317 2.786011,-5.485352c0.728668,-1.535034 -0.111176,-4.534668 2.136566,-5.641357c2.247726,-1.106689 7.788254,-0.42627 10.710373,-0.921143c2.921951,-0.494995 5.752731,-2.212524 8.791138,-1.810547c3.038513,0.401978 5.768921,2.818848 7.953537,4.004517c2.184509,1.185669 7.90976,1.769531 8.900269,3.285522c0.990387,1.515991 -2.092255,4.013184 -2.910217,5.526611c-0.817963,1.513428 -1.263123,3.995605 -3.418762,5.174194z" id="path5604"/>
   <path fill="#fcc916" stroke-width="3" stroke-linecap="round" stroke-linejoin="round" stroke-miterlimit="4" stroke-dashoffset="0" id="path5600" d="m278.695618,1390.809814c-1.712036,0.917603 -6.621155,-0.452271 -8.984833,0.037109c-2.363678,0.489258 -7.218292,3.115479 -9.808502,2.811523c-2.590302,-0.303955 -3.89682,-2.716431 -6.073944,-3.47644c-2.177094,-0.76001 -6.038818,-0.656494 -7.051361,-1.791504c-1.012512,-1.135132 1.336182,-3.791016 1.944824,-4.9729c0.608551,-1.181763 -1.1586,-3.34314 0.533447,-4.321655c1.692078,-0.978516 6.828918,-0.780518 9.348083,-1.105957c2.519165,-0.325317 5.351166,-1.883667 7.988037,-1.682129c2.636871,0.20166 5.213013,2.158325 7.403259,2.872681c2.190338,0.714355 6.37854,1.506592 7.542572,2.631592c1.164063,1.125 -1.746002,2.41687 -2.035309,3.642212c-0.289307,1.225464 0.905853,4.437866 -0.806274,5.355469z"/>
   <path fill="#ad7fa8" stroke-width="3" stroke-linecap="round" stroke-linejoin="round" stroke-miterlimit="4" stroke-dashoffset="0" id="path5598" d="m230.038025,1403.483643c-1.922394,1.341309 -7.361511,-0.040283 -10.083374,0.635254c-2.721954,0.675537 -7.453979,3.921021 -10.393433,3.53833c-2.939484,-0.382568 -4.626862,-3.643921 -7.030853,-4.752319c-2.403992,-1.108398 -7.087799,-1.251465 -8.197128,-2.897949c-1.109329,-1.646484 1.762405,-4.970947 2.37616,-6.693726c0.613663,-1.7229 -1.268539,-4.788574 0.639618,-6.184448c1.908066,-1.395874 7.504745,-1.064209 10.337601,-1.591919c2.832855,-0.527588 6.149323,-2.818237 9.118927,-2.527588c2.969635,0.290771 5.546936,3.144287 7.961548,4.212036c2.414612,1.067749 7.325348,2.010986 8.540955,3.64978c1.215607,1.638916 -2.050323,3.741211 -2.439514,5.50293c-0.389313,1.761597 1.091858,5.768311 -0.830505,7.109619z"/>
   <path fill="#ce5c00" stroke-width="3" stroke-linecap="round" stroke-linejoin="round" stroke-miterlimit="4" stroke-dashoffset="0" id="path5594" d="m223.933075,1439.208008c-2.743927,1.703491 -9.514618,0.145264 -13.357178,0.70813c-3.969788,0.581543 -8.254578,5.305664 -12.277283,4.61499c-3.893799,-0.668579 -6.383667,-5.93042 -9.227448,-7.583984c-2.937836,-1.708252 -8.903427,-1.365723 -10.1828,-3.656738c-1.238464,-2.217651 4.051254,-5.810913 5.114014,-8.055664c1.097931,-2.319092 -1.72879,-6.223389 1.230545,-7.877563c2.864517,-1.601318 9.186768,0.623901 12.980377,0.004761c3.919144,-0.639771 8.101089,-4.485596 12.154617,-3.916382c3.923706,0.550903 6.511475,4.496948 9.387543,6.08374c2.971191,1.639282 10.974487,2.122803 12.334869,4.355347c1.316559,2.161133 -6.737457,4.691772 -7.548828,6.960938c-0.838226,2.344238 2.226349,6.602539 -0.608429,8.362427z"/>
   <path fill="#3465a4" stroke-width="3" stroke-linecap="round" stroke-linejoin="round" stroke-miterlimit="4" stroke-dashoffset="0" d="m255.81842,1427.769287c-2.269592,1.341309 -8.691132,-0.040283 -11.904633,0.635254c-3.213501,0.675537 -8.800354,3.921021 -12.27066,3.53833c-3.470398,-0.382568 -5.462677,-3.643921 -8.300873,-4.752319c-2.838196,-1.108398 -8.368011,-1.251465 -9.677734,-2.897949c-1.309692,-1.646484 2.080841,-4.970947 2.805359,-6.693726c0.724609,-1.7229 -1.49765,-4.788574 0.755157,-6.184448c2.252808,-1.395874 8.860291,-1.064209 12.204926,-1.591919c3.344543,-0.527588 7.259888,-2.818237 10.765991,-2.527588c3.506012,0.290771 6.548859,3.144287 9.399506,4.212036c2.850739,1.067749 8.648468,2.010986 10.08374,3.64978c1.435181,1.638916 -2.420624,3.741211 -2.880249,5.50293c-0.459534,1.761597 1.289063,5.768311 -0.98053,7.109619z" id="path5592"/>
   <path fill="#fcaf3e" stroke-width="3" stroke-linecap="round" stroke-linejoin="round" stroke-miterlimit="4" stroke-dashoffset="0" d="m279.009796,1474.040039c-2.717255,1.482788 -10.508392,-0.730957 -14.259613,0.059814c-3.751312,0.790771 -11.456116,5.03479 -15.566956,4.543579c-4.11087,-0.491211 -6.18457,-4.389771 -9.639801,-5.61792c-3.455109,-1.228271 -9.584076,-1.060913 -11.19101,-2.895264c-1.606964,-1.834229 2.120728,-6.126343 3.086548,-8.036255c0.96579,-1.90979 -1.838776,-5.402466 0.846771,-6.983765c2.685394,-1.581299 10.837891,-1.261353 14.83609,-1.787231c3.998077,-0.525879 8.492584,-3.044067 12.677612,-2.718384c4.184784,0.325806 8.273315,3.487793 11.749542,4.642212c3.476227,1.154419 10.123169,2.434814 11.970612,4.252808c1.847443,1.817871 -2.771149,3.905518 -3.230286,5.885864c-0.459167,1.980347 1.437744,7.171753 -1.27951,8.654541z" id="path5590"/>
   <path fill="#cc0000" stroke-width="3" stroke-linecap="round" stroke-linejoin="round" stroke-miterlimit="4" stroke-dashoffset="0" d="m327.382629,1497.259644c-3.256622,2.093384 -11.291931,0.178589 -15.852448,0.870239c-4.711182,0.714478 -9.796509,6.519897 -14.570648,5.671021c-4.621155,-0.821533 -7.575989,-7.287598 -10.951111,-9.319458c-3.486511,-2.099121 -10.566437,-1.678223 -12.084808,-4.493652c-1.469788,-2.72522 4.807892,-7.140747 6.069336,-9.899292c1.303009,-2.849731 -2.051758,-7.647583 1.460236,-9.680298c3.399628,-1.967773 10.902985,0.766724 15.405243,0.005737c4.651215,-0.786133 9.614349,-5.511963 14.425079,-4.8125c4.656647,0.677002 7.727844,5.526123 11.141113,7.475952c3.526245,2.014404 13.024506,2.608643 14.638855,5.352173c1.562653,2.65564 -7.99585,5.765503 -8.958771,8.553955c-0.994812,2.880737 2.642059,8.113525 -0.722076,10.276123z" id="path5586"/>
   <path fill="#fcaf3e" stroke-width="3" stroke-linecap="round" stroke-linejoin="round" stroke-miterlimit="4" stroke-dashoffset="0" id="path5582" d="m281.046906,1533.928345c-3.167816,1.746582 -12.250763,-0.860962 -16.624146,0.070557c-4.373383,0.931396 -13.355774,5.93042 -18.148315,5.351807c-4.792511,-0.578613 -7.210083,-5.170654 -11.238129,-6.617432c-4.028198,-1.446655 -11.17337,-1.249634 -13.046814,-3.410156c-1.87326,-2.160522 2.472412,-7.216187 3.598358,-9.46582c1.125916,-2.249634 -2.143524,-6.363525 0.987213,-8.226196c3.130615,-1.862549 12.634949,-1.485718 17.296021,-2.105103c4.661041,-0.619385 9.901123,-3.585693 14.779846,-3.201904c4.878845,0.383667 9.645477,4.108276 13.697998,5.468018c4.052521,1.359619 11.801819,2.867798 13.955627,5.009155c2.153778,2.141479 -3.230682,4.600464 -3.765991,6.932983c-0.535278,2.332642 1.676178,8.44751 -1.491669,10.194092z"/>
   <path fill="#ad7fa8" stroke-width="3" stroke-linecap="round" stroke-linejoin="round" stroke-miterlimit="4" stroke-dashoffset="0" id="path5576" d="m360.902679,1551.781494c-2.999542,1.884277 -11.486877,-0.056641 -15.7341,0.892456c-4.247192,0.948975 -11.631042,5.508057 -16.217804,4.970581c-4.586761,-0.537476 -7.219757,-5.119019 -10.971069,-6.676025c-3.75119,-1.557007 -11.059784,-1.758057 -12.790802,-4.070923c-1.730865,-2.312988 2.750183,-6.983032 3.707764,-9.40332c0.957581,-2.420288 -1.979431,-6.726929 0.998047,-8.687744c2.977356,-1.960815 11.710449,-1.495117 16.130829,-2.236328c4.42038,-0.741211 9.595367,-3.958984 14.229156,-3.550659c4.633942,0.408447 8.655579,4.416992 12.42334,5.916992c3.767639,1.5 11.430481,2.824829 13.327209,5.127075c1.896973,2.302246 -3.19931,5.255615 -3.806641,7.730469c-0.607361,2.474731 1.703735,8.103149 -1.295929,9.987427z"/>
   <path fill="#f57900" stroke-width="3" stroke-linecap="round" stroke-linejoin="round" stroke-miterlimit="4" stroke-dashoffset="0" d="m322.919464,1557.497314c-3.671417,2.065186 -10.682373,2.441284 -15.895569,3.165283c-5.213257,0.723877 -12.846008,4.195923 -17.978485,3.347778c-5.132385,-0.848145 -9.808197,-5.026123 -13.54599,-7.016235c-3.737762,-1.990112 -10.52124,-4.012329 -12.103241,-6.737183c-1.58197,-2.724854 3.503784,-6.921387 4.744904,-9.61084c1.241119,-2.689453 -0.189331,-7.94519 3.638977,-9.884155c3.828308,-1.938965 13.264679,-0.746826 18.241333,-1.613892c4.976563,-0.867188 9.797821,-3.876343 14.972717,-3.172119c5.174957,0.704224 9.825348,4.938843 13.54599,7.016235c3.720642,2.077393 13.471588,3.100342 15.158478,5.75647c1.686859,2.656128 -3.563354,7.031494 -4.956451,9.683105c-1.393097,2.651611 -2.151184,7.000488 -5.822662,9.065552z" id="path5574"/>
   <path fill="#fcc916" stroke-width="3" stroke-linecap="round" stroke-linejoin="round" stroke-miterlimit="4" stroke-dashoffset="0" d="m304.296875,1444.157959c-2.682587,1.44519 -10.374237,-0.71228 -14.077728,0.058472c-3.703461,0.77063 -11.309967,4.906738 -15.368408,4.427979c-4.058411,-0.47876 -6.105652,-4.278198 -9.516693,-5.475098c-3.411163,-1.197144 -9.461945,-1.033936 -11.048401,-2.821655c-1.586334,-1.787598 2.093689,-5.970703 3.04718,-7.832031c0.953491,-1.861328 -1.815186,-5.265137 0.835968,-6.806274c2.651154,-1.541138 10.699646,-1.22937 14.646729,-1.741821c3.947113,-0.512451 8.384521,-2.966797 12.5159,-2.649292c4.131531,0.317505 8.16806,3.39917 11.599823,4.52417c3.431763,1.125122 9.994049,2.372925 11.817902,4.144653c1.823883,1.771851 -2.735809,3.806396 -3.189087,5.73645c-0.453308,1.929932 1.419403,6.98938 -1.263184,8.434448z" id="path5578"/>
   <path fill="#ce5c00" stroke-width="3" stroke-linecap="round" stroke-linejoin="round" stroke-miterlimit="4" stroke-dashoffset="0" id="path5580" d="m169.880737,1378.669189c-2.194839,1.196777 -7.610352,0.102173 -10.68396,0.497559c-3.175171,0.408447 -6.602493,3.727173 -9.819992,3.241943c-3.114594,-0.469727 -5.10614,-4.166138 -7.380661,-5.327637c-2.34996,-1.200073 -7.12149,-0.959473 -8.144806,-2.568848c-0.990601,-1.557983 3.240433,-4.082153 4.090485,-5.659058c0.878204,-1.62915 -1.382782,-4.371948 0.984161,-5.533936c2.291321,-1.124878 7.348129,0.438232 10.382568,0.003296c3.134674,-0.449341 6.479736,-3.151001 9.721985,-2.751221c3.138397,0.387085 5.208191,3.15918 7.508606,4.273804c2.376648,1.151611 8.778152,1.491211 9.866165,3.05957c1.053177,1.518188 -5.388931,3.296021 -6.037979,4.890015c-0.67038,1.646851 1.780746,4.638306 -0.486572,5.874512z"/>
   <path fill="#ce5c00" stroke-width="3" stroke-linecap="round" stroke-linejoin="round" stroke-miterlimit="4" stroke-dashoffset="0" d="m363.256989,1514.552124c-3.439545,1.820435 -11.926636,0.155273 -16.743347,0.756714c-4.976166,0.62146 -10.34726,5.670044 -15.389679,4.931763c-4.880951,-0.714355 -8.002014,-6.337524 -11.566711,-8.104492c-3.682648,-1.825562 -11.160583,-1.459473 -12.764282,-3.907837c-1.552429,-2.369995 5.078308,-6.209961 6.410492,-8.608765c1.376343,-2.478271 -2.167084,-6.650635 1.54248,-8.418457c3.590729,-1.711182 11.515717,0.666748 16.271057,0.005127c4.912689,-0.683716 10.154785,-4.793457 15.235962,-4.185303c4.918396,0.588745 8.162231,4.805786 11.767395,6.501465c3.724365,1.751831 13.756561,2.268555 15.461823,4.654419c1.65036,2.309448 -8.445496,5.013794 -9.462524,7.438843c-1.050751,2.505249 2.790741,7.055908 -0.762665,8.936523z" id="path5584"/>
   <path fill="#f57900" stroke-width="3" stroke-linecap="round" stroke-linejoin="round" stroke-miterlimit="4" stroke-dashoffset="0" id="path5588" d="m261.531067,1501.227539c-2.634094,1.742554 -9.133759,0.148682 -12.82254,0.724365c-3.810852,0.594849 -7.924255,5.427124 -11.785828,4.720581c-3.737946,-0.68396 -6.128143,-6.066162 -8.858093,-7.757446c-2.820251,-1.747314 -8.547058,-1.396973 -9.775208,-3.740479c-1.188873,-2.268433 3.889099,-5.94397 4.909332,-8.240112c1.054077,-2.37207 -1.659607,-6.365723 1.181274,-8.057861c2.749847,-1.637817 8.819031,0.638306 12.460785,0.004883c3.762268,-0.654297 7.776825,-4.588135 11.668091,-4.005981c3.766632,0.563599 6.250854,4.599976 9.01178,6.223022c2.852295,1.676758 10.535309,2.171387 11.841003,4.455078c1.264008,2.210449 -6.467651,4.799072 -7.246521,7.120239c-0.804688,2.397827 2.137207,6.753662 -0.584076,8.553711z"/>
   <path fill="#ad7fa8" stroke-width="3" stroke-linecap="round" stroke-linejoin="round" stroke-miterlimit="4" stroke-dashoffset="0" d="m203.291626,1467.2677c-2.47821,1.729126 -9.489929,-0.052002 -12.998779,0.81897c-3.508972,0.87085 -9.609161,5.054688 -13.398529,4.561401c-3.789368,-0.493286 -5.96463,-4.697632 -9.06369,-6.126465c-3.099045,-1.428833 -9.137085,-1.613281 -10.567169,-3.73584c-1.430084,-2.122437 2.271973,-6.408081 3.063171,-8.62915c0.791107,-2.220947 -1.6353,-6.172974 0.824554,-7.972412c2.459747,-1.799438 9.674622,-1.37207 13.326538,-2.052246c3.651932,-0.680176 7.927277,-3.633057 11.755493,-3.258301c3.828232,0.374756 7.150726,4.053345 10.263474,5.42981c3.112747,1.376465 9.443344,2.592285 11.010422,4.705078c1.567078,2.112671 -2.643127,4.822876 -3.144867,7.093872c-0.501862,2.270996 1.407562,7.436157 -1.070618,9.165283z" id="path5596"/>
   <path fill="#f57900" stroke-width="3" stroke-linecap="round" stroke-linejoin="round" stroke-miterlimit="4" stroke-dashoffset="0" id="path5602" d="m215.363373,1378.207031c-2.15567,1.178711 -6.272186,1.393433 -9.333038,1.806519c-3.060944,0.413208 -7.542542,2.394897 -10.556,1.910889c-3.013458,-0.484131 -5.758881,-2.868652 -7.953445,-4.004517c-2.194656,-1.135864 -6.177567,-2.290161 -7.10643,-3.845337c-0.928848,-1.555176 2.057251,-3.950317 2.786011,-5.485352c0.728668,-1.535034 -0.111176,-4.534668 2.136566,-5.641357c2.247726,-1.106689 7.788254,-0.42627 10.710373,-0.921143c2.921951,-0.494995 5.752731,-2.212524 8.791153,-1.810547c3.038483,0.401978 5.768921,2.818848 7.953522,4.004517c2.184509,1.185669 7.90976,1.769531 8.900269,3.285522c0.990387,1.515991 -2.092255,4.013184 -2.910217,5.526611c-0.817963,1.513428 -1.263123,3.995605 -3.418762,5.174194z"/>
   <path fill="#fcaf3e" stroke-width="3" stroke-linecap="round" stroke-linejoin="round" stroke-miterlimit="4" stroke-dashoffset="0" id="path7636" d="m300.550476,1414.941528c-1.982025,1.322998 -7.664886,-0.6521 -10.401184,0.053467c-2.736267,0.705566 -8.35614,4.491943 -11.354675,4.053589c-2.998505,-0.438232 -4.511108,-3.916382 -7.031403,-5.012207c-2.520294,-1.095825 -6.990845,-0.946533 -8.162994,-2.583008c-1.172028,-1.636475 1.546906,-5.46582 2.251373,-7.1698c0.704498,-1.703979 -1.341125,-4.819946 0.617676,-6.230835c1.958862,-1.410767 7.905396,-1.125366 10.821655,-1.594604c2.91626,-0.469116 6.194702,-2.71582 9.247223,-2.425171c3.052551,0.290649 6.03479,3.111694 8.570404,4.141724c2.535522,1.029907 7.383881,2.172241 8.731445,3.794189c1.347565,1.621948 -2.02124,3.484497 -2.35614,5.251343c-0.33493,1.766724 1.048615,6.398438 -0.93338,7.721313z"/>
  </g>
  <path opacity="0.364445" fill="#323232" stroke-width="3" stroke-linecap="round" stroke-linejoin="round" stroke-miterlimit="4" stroke-dashoffset="0" filter="url(#filter4635)" d="m2283.818359,1367.617188a254.285706,77.14286 0 1 1 -508.571411,0a254.285706,77.14286 0 1 1 508.571411,0z" id="path4397"/>
  <path fill="url(#radialGradient4647)" stroke="#fcaf3e" stroke-width="8.398963" stroke-linecap="round" stroke-linejoin="round" stroke-miterlimit="4" stroke-dashoffset="0" clip-path="url(#clipPath5671)" d="m1619.644531,206.485992a166.687241,156.481903 0 1 1 -333.374634,0a166.687241,156.481903 0 1 1 333.374634,0z" id="path4639"/>
  <path fill="#fdfdfd" stroke-width="5" stroke-linecap="round" stroke-linejoin="round" stroke-miterlimit="4" stroke-dashoffset="0" filter="url(#filter5575)" clip-path="url(#clipPath5495)" id="path4984" d="m1902.869019,87.193459c-48.512451,0 -90.276978,11.929924 -108.884521,29.028992c-4.268921,-0.294823 -8.609497,-0.457611 -13.019897,-0.457573c-57.891602,0 -104.884399,26.515854 -104.884399,59.185242c0,28.591507 35.995483,52.464569 83.786011,57.979889c14.848267,30.919449 81.280518,54.263412 160.924805,54.263443c90.54834,0 164.04248,-30.168243 164.04248,-67.343796l-0.117676,-1.082565c29.33374,-9.23204 48.520752,-24.501541 48.520752,-41.774582l-0.421875,-4.386139c-5.100586,-26.509354 -53.967285,-46.620636 -113.325684,-46.640625c-11.480103,-22.433403 -59.405396,-38.772331 -116.619995,-38.772285z"/>
  <path fill="#fdfdfd" stroke-width="5" stroke-linecap="round" stroke-linejoin="round" stroke-miterlimit="4" stroke-dashoffset="0" filter="url(#filter5445)" clip-path="url(#clipPath5381)" d="m881.650269,190.050583c73.37439,0 136.542542,14.99762 164.686279,36.493607c6.456543,-0.370651 13.021729,-0.575287 19.692383,-0.575241c87.560059,0 158.636108,33.334244 158.636108,74.404343c0,35.943604 -54.442749,65.955444 -126.725098,72.889008c-22.457764,38.870148 -122.935669,68.216827 -243.396301,68.216888c-136.953064,0 -248.112,-37.925812 -248.112,-84.660736l0.17804,-1.360962c-44.366821,-11.606018 -73.386658,-30.801941 -73.386658,-52.516632l0.637634,-5.514008c7.714539,-33.32605 81.624878,-58.60881 171.403625,-58.633957c17.363464,-28.201981 89.849915,-48.742355 176.385986,-48.74231z" id="path5187"/>
  <g opacity="0.697778" fill="#009800" display="inline" id="g5828" transform="matrix(-0.210623, 0, 0, 0.556237, -341.333, 359.596)">
   <path fill="#009800" stroke-width="5" stroke-linecap="round" stroke-linejoin="round" stroke-miterlimit="4" stroke-dashoffset="0" id="path5830" d="m-3752.123779,2131.598633c-12.955811,-57.300537 -65.418457,-104.149414 -110.755127,-139.77832c58.284424,5.963745 98.620361,69.925293 124.037842,117.933838c2.572754,8.976318 -2.445068,22.19751 -13.282715,21.844482z"/>
   <path fill="#009800" stroke-width="5" stroke-linecap="round" stroke-linejoin="round" stroke-miterlimit="4" stroke-dashoffset="0" id="path5832" d="m-3677.543213,2122.921875c16.922363,-30.073486 -35.47998,-114.769531 -26.255859,-150.659912c29.290039,54.484131 47.240967,92.356201 42.014648,140.91333c-3.416748,5.674561 -10.499023,6.567383 -15.758789,9.746582z"/>
   <path fill="#009800" stroke-width="5" stroke-linecap="round" stroke-linejoin="round" stroke-miterlimit="4" stroke-dashoffset="0" id="path5834" d="m-3603.031006,2120.557129c25.249268,-47.250977 55.258545,-94.921509 108.53833,-113.318604c-29.527588,20.459229 -63.095703,41.023926 -76.157715,76.460205c-6.845215,14.830078 -14.696045,32.876465 -32.380615,36.858398z"/>
   <path fill="#009800" stroke-width="5" stroke-linecap="round" stroke-linejoin="round" stroke-miterlimit="4" stroke-dashoffset="0" id="path5836" d="m-3494.258057,2129.515137c20.26416,-9.159668 40.634033,-61.067383 69.030518,-84.928955c-31.307129,78.413818 -42.603516,86.36792 -69.030518,84.928955z"/>
   <path fill="#009800" stroke-width="5" stroke-linecap="round" stroke-linejoin="round" stroke-miterlimit="4" stroke-dashoffset="0" id="path5838" d="m-3637.31665,2111.98584c12.679932,-15.090576 17.682129,-39.510742 39.270264,-44.824707c-11.711182,15.824463 -17.50708,39.779785 -39.270264,44.824707z"/>
   <path fill="#009800" stroke-width="5" stroke-linecap="round" stroke-linejoin="round" stroke-miterlimit="4" stroke-dashoffset="0" id="path5840" d="m-3716.11377,2086.680908c-10.250244,-21.322998 -21.087646,-42.660889 -36.165527,-61.046875c42.01709,18.97168 55.649658,50.302002 36.165527,61.046875z"/>
   <path fill="#009800" stroke-width="5" stroke-linecap="round" stroke-linejoin="round" stroke-miterlimit="4" stroke-dashoffset="0" id="path5842" d="m-3522.725342,2083.305908c18.253418,-21.31543 39.844238,-40.695557 65.959717,-51.724487c-22.991943,11.943237 -42.077393,44.868286 -65.959717,51.724487z"/>
  </g>
  <g opacity="0.697778" fill="#008c00" display="inline" transform="matrix(-0.284483, 0, 0, 0.391411, 808.187, 580.556)" id="g5844">
   <path fill="#008c00" stroke-width="5" stroke-linecap="round" stroke-linejoin="round" stroke-miterlimit="4" stroke-dashoffset="0" d="m-2763.757813,2300.729248c-12.956055,-57.300537 -65.418457,-104.149414 -110.755371,-139.77832c58.284668,5.963867 98.620605,69.925293 124.038086,117.933594c2.572754,8.976318 -2.445313,22.197754 -13.282715,21.844727z" id="path5846"/>
   <path fill="#008c00" stroke-width="5" stroke-linecap="round" stroke-linejoin="round" stroke-miterlimit="4" stroke-dashoffset="0" d="m-2689.177246,2292.052246c16.922363,-30.073486 -35.47998,-114.769287 -26.255859,-150.659668c29.289551,54.484131 47.240723,92.356201 42.014648,140.913086c-3.416992,5.674561 -10.499023,6.567627 -15.758789,9.746582z" id="path5848"/>
   <path fill="#008c00" stroke-width="5" stroke-linecap="round" stroke-linejoin="round" stroke-miterlimit="4" stroke-dashoffset="0" d="m-2614.665039,2289.687744c25.249023,-47.250977 55.258301,-94.921387 108.538086,-113.318604c-29.527344,20.459229 -63.095703,41.023926 -76.157715,76.460205c-6.845215,14.830078 -14.695801,32.876465 -32.380371,36.858398z" id="path5850"/>
   <path fill="#008c00" stroke-width="5" stroke-linecap="round" stroke-linejoin="round" stroke-miterlimit="4" stroke-dashoffset="0" d="m-2505.89209,2298.645752c20.26416,-9.159668 40.633789,-61.067383 69.030273,-84.929199c-31.307129,78.414063 -42.603516,86.36792 -69.030273,84.929199z" id="path5852"/>
   <path fill="#008c00" stroke-width="5" stroke-linecap="round" stroke-linejoin="round" stroke-miterlimit="4" stroke-dashoffset="0" d="m-2648.950684,2281.116211c12.679688,-15.090576 17.682129,-39.510498 39.27002,-44.824463c-11.710938,15.824219 -17.506836,39.779785 -39.27002,44.824463z" id="path5854"/>
   <path fill="#008c00" stroke-width="5" stroke-linecap="round" stroke-linejoin="round" stroke-miterlimit="4" stroke-dashoffset="0" d="m-2727.748047,2255.811523c-10.25,-21.322998 -21.087402,-42.660889 -36.165527,-61.046875c42.01709,18.971436 55.649414,50.302002 36.165527,61.046875z" id="path5856"/>
   <path fill="#008c00" stroke-width="5" stroke-linecap="round" stroke-linejoin="round" stroke-miterlimit="4" stroke-dashoffset="0" d="m-2534.359863,2252.436523c18.253906,-21.315674 39.844727,-40.695557 65.959961,-51.724365c-22.991699,11.942871 -42.077148,44.868164 -65.959961,51.724365z" id="path5858"/>
  </g>
  <g opacity="0.697778" fill="#008c00" display="inline" id="g5860" transform="matrix(0.326029, 0, 0, 0.480164, 1333.72, 586.943)">
   <path fill="#008c00" stroke-width="5" stroke-linecap="round" stroke-linejoin="round" stroke-miterlimit="4" stroke-dashoffset="0" id="path5862" d="m2514.037598,2195.230225c-12.955811,-57.300293 -65.418457,-104.14917 -110.755127,-139.778076c58.284424,5.963623 98.620361,69.925293 124.037842,117.933594c2.572754,8.976318 -2.445068,22.197754 -13.282715,21.844482z"/>
   <path fill="#008c00" stroke-width="5" stroke-linecap="round" stroke-linejoin="round" stroke-miterlimit="4" stroke-dashoffset="0" id="path5864" d="m2588.618164,2186.553467c16.922363,-30.073486 -35.47998,-114.769287 -26.255859,-150.659668c29.289795,54.484131 47.240967,92.355957 42.014648,140.913086c-3.416748,5.674561 -10.498779,6.567627 -15.758789,9.746582z"/>
   <path fill="#008c00" stroke-width="5" stroke-linecap="round" stroke-linejoin="round" stroke-miterlimit="4" stroke-dashoffset="0" id="path5866" d="m2663.130371,2184.188721c25.249268,-47.250732 55.258545,-94.921387 108.53833,-113.318359c-29.527588,20.459229 -63.095703,41.023926 -76.157715,76.460205c-6.845215,14.830078 -14.696045,32.876465 -32.380615,36.858154z"/>
   <path fill="#008c00" stroke-width="5" stroke-linecap="round" stroke-linejoin="round" stroke-miterlimit="4" stroke-dashoffset="0" id="path5868" d="m2771.90332,2193.146973c20.26416,-9.159912 40.634033,-61.067383 69.030518,-84.929199c-31.307129,78.414063 -42.603516,86.36792 -69.030518,84.929199z"/>
   <path fill="#008c00" stroke-width="5" stroke-linecap="round" stroke-linejoin="round" stroke-miterlimit="4" stroke-dashoffset="0" id="path5870" d="m2628.844727,2175.617432c12.679932,-15.090576 17.682129,-39.510498 39.270264,-44.824463c-11.710938,15.824219 -17.50708,39.779785 -39.270264,44.824463z"/>
   <path fill="#008c00" stroke-width="5" stroke-linecap="round" stroke-linejoin="round" stroke-miterlimit="4" stroke-dashoffset="0" id="path5872" d="m2550.047607,2150.312744c-10.250244,-21.322998 -21.087646,-42.660889 -36.165527,-61.046875c42.01709,18.971436 55.649414,50.301758 36.165527,61.046875z"/>
   <path fill="#008c00" stroke-width="5" stroke-linecap="round" stroke-linejoin="round" stroke-miterlimit="4" stroke-dashoffset="0" id="path5874" d="m2743.435791,2146.937744c18.253662,-21.315674 39.844482,-40.695557 65.959961,-51.724609c-22.991943,11.943115 -42.077393,44.868164 -65.959961,51.724609z"/>
  </g>
  <g opacity="0.697778" fill="#008c00" display="inline" id="g5876" transform="matrix(-0.192158, 0, 0, 0.213906, 1121.46, 743.183)">
   <path fill="#008c00" stroke-width="5" stroke-linecap="round" stroke-linejoin="round" stroke-miterlimit="4" stroke-dashoffset="0" id="path5878" d="m-4117.93457,2774.364258c-12.956055,-57.300293 -65.418945,-104.14917 -110.755371,-139.778076c58.284668,5.963623 98.620605,69.925293 124.038086,117.933838c2.572754,8.976074 -2.445313,22.19751 -13.282715,21.844238z"/>
   <path fill="#008c00" stroke-width="5" stroke-linecap="round" stroke-linejoin="round" stroke-miterlimit="4" stroke-dashoffset="0" id="path5880" d="m-4043.354004,2765.6875c16.922363,-30.073242 -35.47998,-114.769287 -26.255859,-150.659668c29.290039,54.484131 47.240723,92.355957 42.014648,140.913086c-3.416992,5.674805 -10.499023,6.567627 -15.758789,9.746582z"/>
   <path fill="#008c00" stroke-width="5" stroke-linecap="round" stroke-linejoin="round" stroke-miterlimit="4" stroke-dashoffset="0" id="path5882" d="m-3968.841797,2763.322754c25.249023,-47.250732 55.258301,-94.921387 108.538086,-113.318359c-29.527344,20.459229 -63.095703,41.023926 -76.157715,76.460205c-6.845215,14.830078 -14.695801,32.876465 -32.380371,36.858154z"/>
   <path fill="#008c00" stroke-width="5" stroke-linecap="round" stroke-linejoin="round" stroke-miterlimit="4" stroke-dashoffset="0" id="path5884" d="m-3860.068848,2772.281006c20.26416,-9.159912 40.633789,-61.067383 69.030273,-84.928955c-31.307129,78.413818 -42.603516,86.367676 -69.030273,84.928955z"/>
   <path fill="#008c00" stroke-width="5" stroke-linecap="round" stroke-linejoin="round" stroke-miterlimit="4" stroke-dashoffset="0" id="path5886" d="m-4003.127441,2754.751465c12.679688,-15.090332 17.682129,-39.510498 39.27002,-44.824463c-11.710938,15.824463 -17.506836,39.779785 -39.27002,44.824463z"/>
   <path fill="#008c00" stroke-width="5" stroke-linecap="round" stroke-linejoin="round" stroke-miterlimit="4" stroke-dashoffset="0" id="path5888" d="m-4081.924805,2729.446777c-10.25,-21.322998 -21.087402,-42.660889 -36.165527,-61.046875c42.01709,18.97168 55.649902,50.301758 36.165527,61.046875z"/>
   <path fill="#008c00" stroke-width="5" stroke-linecap="round" stroke-linejoin="round" stroke-miterlimit="4" stroke-dashoffset="0" id="path5890" d="m-3888.536133,2726.071777c18.253418,-21.31543 39.844238,-40.695557 65.959473,-51.724609c-22.991699,11.943359 -42.077148,44.868164 -65.959473,51.724609z"/>
  </g>
  <g opacity="0.697778" fill="#008c00" display="inline" transform="matrix(0.169077, 0, 0, 0.16319, 1217.85, 559.511)" id="g5892">
   <path fill="#008c00" stroke-width="5" stroke-linecap="round" stroke-linejoin="round" stroke-miterlimit="4" stroke-dashoffset="0" d="m4796.999023,3098.939941c-12.956055,-57.300293 -65.418457,-104.14917 -110.755371,-139.778076c58.284668,5.963623 98.620605,69.925293 124.038086,117.933838c2.572754,8.976074 -2.445313,22.19751 -13.282715,21.844238z" id="path5894"/>
   <path fill="#008c00" stroke-width="5" stroke-linecap="round" stroke-linejoin="round" stroke-miterlimit="4" stroke-dashoffset="0" d="m4871.57959,3090.263184c16.922363,-30.073242 -35.47998,-114.769287 -26.255859,-150.659668c29.290039,54.484131 47.241211,92.355957 42.014648,140.913086c-3.416992,5.674805 -10.499023,6.567627 -15.758789,9.746582z" id="path5896"/>
   <path fill="#008c00" stroke-width="5" stroke-linecap="round" stroke-linejoin="round" stroke-miterlimit="4" stroke-dashoffset="0" d="m4946.091797,3087.898438c25.249512,-47.250732 55.258789,-94.921387 108.538574,-113.318359c-29.527832,20.459229 -63.095703,41.023926 -76.158203,76.460205c-6.844727,14.830078 -14.695801,32.876465 -32.380371,36.858154z" id="path5898"/>
   <path fill="#008c00" stroke-width="5" stroke-linecap="round" stroke-linejoin="round" stroke-miterlimit="4" stroke-dashoffset="0" d="m5054.864746,3096.856689c20.26416,-9.159912 40.633789,-61.067383 69.030762,-84.928955c-31.307617,78.413818 -42.604004,86.367676 -69.030762,84.928955z" id="path5900"/>
   <path fill="#008c00" stroke-width="5" stroke-linecap="round" stroke-linejoin="round" stroke-miterlimit="4" stroke-dashoffset="0" d="m4911.806152,3079.327148c12.680176,-15.090332 17.682129,-39.510498 39.27002,-44.824463c-11.710938,15.824463 -17.506836,39.779785 -39.27002,44.824463z" id="path5902"/>
   <path fill="#008c00" stroke-width="5" stroke-linecap="round" stroke-linejoin="round" stroke-miterlimit="4" stroke-dashoffset="0" d="m4833.008789,3054.022461c-10.25,-21.322998 -21.087402,-42.660889 -36.165039,-61.046875c42.01709,18.97168 55.649414,50.301758 36.165039,61.046875z" id="path5904"/>
   <path fill="#008c00" stroke-width="5" stroke-linecap="round" stroke-linejoin="round" stroke-miterlimit="4" stroke-dashoffset="0" d="m5026.397461,3050.647461c18.253418,-21.31543 39.844238,-40.695557 65.959961,-51.724609c-22.992188,11.943359 -42.077637,44.868164 -65.959961,51.724609z" id="path5906"/>
  </g>
  <g fill="#009800" display="inline" transform="matrix(0.38604, 0, 0, 0.492842, -213.2, 373.302)" id="g5811">
   <path fill="#009800" stroke-width="5" stroke-linecap="round" stroke-linejoin="round" stroke-miterlimit="4" stroke-dashoffset="0" d="m2131.728271,2183.260986c-12.956055,-57.300293 -65.418457,-104.14917 -110.755127,-139.778198c58.284424,5.963745 98.620361,69.925415 124.037842,117.933716c2.572754,8.976318 -2.445068,22.197754 -13.282715,21.844482z" id="path5727"/>
   <path fill="#009800" stroke-width="5" stroke-linecap="round" stroke-linejoin="round" stroke-miterlimit="4" stroke-dashoffset="0" d="m2206.308838,2174.584229c16.922119,-30.073486 -35.47998,-114.769287 -26.255859,-150.660034c29.289795,54.484497 47.240967,92.356323 42.014404,140.913452c-3.416504,5.674561 -10.498779,6.567627 -15.758545,9.746582z" id="path5729"/>
   <path fill="#009800" stroke-width="5" stroke-linecap="round" stroke-linejoin="round" stroke-miterlimit="4" stroke-dashoffset="0" d="m2280.821045,2172.219482c25.249268,-47.250732 55.258545,-94.921387 108.53833,-113.318604c-29.527588,20.459473 -63.095703,41.02417 -76.157959,76.460449c-6.844971,14.830078 -14.695801,32.876465 -32.380371,36.858154z" id="path5731"/>
   <path fill="#009800" stroke-width="5" stroke-linecap="round" stroke-linejoin="round" stroke-miterlimit="4" stroke-dashoffset="0" d="m2389.59375,2181.177734c20.264404,-9.159912 40.634033,-61.067383 69.030762,-84.929199c-31.307373,78.414063 -42.60376,86.36792 -69.030762,84.929199z" id="path5733"/>
   <path fill="#009800" stroke-width="5" stroke-linecap="round" stroke-linejoin="round" stroke-miterlimit="4" stroke-dashoffset="0" d="m2246.5354,2163.648193c12.679932,-15.090576 17.682129,-39.510498 39.27002,-44.824463c-11.710938,15.824219 -17.506836,39.779785 -39.27002,44.824463z" id="path5735"/>
   <path fill="#009800" stroke-width="5" stroke-linecap="round" stroke-linejoin="round" stroke-miterlimit="4" stroke-dashoffset="0" d="m2167.738037,2138.343506c-10.25,-21.322998 -21.087402,-42.660889 -36.165283,-61.047119c42.01709,18.97168 55.649414,50.302002 36.165283,61.047119z" id="path5737"/>
   <path fill="#009800" stroke-width="5" stroke-linecap="round" stroke-linejoin="round" stroke-miterlimit="4" stroke-dashoffset="0" d="m2361.126465,2134.968506c18.253418,-21.315674 39.844238,-40.695557 65.959961,-51.724609c-22.991943,11.943115 -42.077637,44.868164 -65.959961,51.724609z" id="path5753"/>
  </g>
  <g transform="matrix(0.137234, 0.0203209, -0.00457729, 0.0689332, 874.477, 574.517)" id="g7741">
   <path fill="#ce5c00" stroke-width="3" stroke-linecap="round" stroke-linejoin="round" stroke-miterlimit="4" stroke-dashoffset="0" id="path7685" d="m2350.870605,5773.946289c-8.371094,4.675781 -29.026855,0.399414 -40.749512,1.943359c-12.11084,1.595703 -25.183105,14.561523 -37.45459,12.666016c-11.879395,-1.834961 -19.474609,-16.275391 -28.150879,-20.813477c-8.962891,-4.688477 -27.161621,-3.748047 -31.064453,-10.036133c-3.77832,-6.085938 12.358887,-15.947266 15.601074,-22.108398c3.350098,-6.364258 -5.273926,-17.080078 3.753906,-21.619141c8.739258,-4.394531 28.026855,1.711914 39.600098,0.012695c11.955566,-1.755859 24.714355,-12.310547 37.080566,-10.749023c11.970215,1.512695 19.864746,12.342773 28.638184,16.697266c9.064941,4.499023 33.480957,5.826172 37.630371,11.953125c4.01709,5.930664 -20.553711,12.875977 -23.02832,19.103516c-2.557617,6.433594 6.791016,18.121094 -1.856445,22.950195z"/>
   <path fill="#fcc916" stroke-width="3" stroke-linecap="round" stroke-linejoin="round" stroke-miterlimit="4" stroke-dashoffset="0" d="m2461.42627,5708.027344c-8.544434,4.580078 -33.044434,-2.256836 -44.840332,0.185547c-11.796387,2.442383 -36.024902,15.548828 -48.952148,14.03125c-12.926758,-1.516602 -19.447754,-13.556641 -30.313477,-17.349609c-10.865234,-3.793945 -30.138184,-3.277344 -35.191406,-8.941406c-5.052734,-5.665039 6.668945,-18.919922 9.706055,-24.818359c3.037109,-5.898438 -5.782227,-16.68457 2.663086,-21.568359c8.444336,-4.883789 34.080566,-3.895508 46.65332,-5.519531c12.572266,-1.624023 26.705566,-9.401367 39.866211,-8.394531c13.15918,1.005859 26.01709,10.771484 36.947754,14.335938c10.931152,3.56543 31.833496,7.519531 37.643066,13.133789c5.80957,5.614258 -8.714355,12.061523 -10.157715,18.177734c-1.444336,6.115234 4.520508,22.148438 -4.024414,26.727539z" id="path7689"/>
   <path fill="#ad7fa8" stroke-width="3" stroke-linecap="round" stroke-linejoin="round" stroke-miterlimit="4" stroke-dashoffset="0" d="m2065.046875,5872.294922c-9.594238,6.693359 -36.739258,-0.201172 -50.32373,3.169922c-13.584473,3.371094 -37.200684,19.568359 -51.870605,17.65918c-14.67041,-1.910156 -23.091797,-18.186523 -35.089355,-23.717773c-11.997559,-5.532227 -35.373047,-6.246094 -40.909668,-14.462891c-5.536133,-8.216797 8.795898,-24.808594 11.858887,-33.407227c3.0625,-8.597656 -6.331055,-23.897461 3.192383,-30.864258c9.522461,-6.96582 37.454102,-5.311523 51.591797,-7.944336c14.138184,-2.633789 30.689941,-14.06543 45.510254,-12.615234c14.820801,1.451172 27.683594,15.692383 39.733887,21.021484c12.050781,5.329102 36.559082,10.036133 42.625977,18.214844c6.066406,8.179688 -10.23291,18.671875 -12.175293,27.463867c-1.942871,8.791992 5.449219,28.788086 -4.144531,35.482422z" id="path7691"/>
   <path fill="#f57900" stroke-width="3" stroke-linecap="round" stroke-linejoin="round" stroke-miterlimit="4" stroke-dashoffset="0" id="path7687" d="m2264.206543,5928.661133c-10.758301,5.882813 -31.302246,6.954102 -46.578613,9.015625c-15.276855,2.0625 -37.642578,11.952148 -52.682617,9.536133c-15.039063,-2.416016 -28.740723,-14.316406 -39.693848,-19.985352c-10.952637,-5.668945 -30.830078,-11.428711 -35.46582,-19.19043c-4.635742,-7.761719 10.26709,-19.71582 13.903809,-27.375977c3.637207,-7.661133 -0.554688,-22.631836 10.663574,-28.155273c11.218262,-5.522461 38.869629,-2.126953 53.452148,-4.59668c14.583008,-2.469727 28.710449,-11.041992 43.874512,-9.035156c15.164063,2.005859 28.791016,14.067383 39.693359,19.985352c10.902832,5.916992 39.476074,8.831055 44.418945,16.396484c4.943359,7.566406 -10.441406,20.029297 -14.523438,27.582031c-4.08252,7.553711 -6.303223,19.94043 -17.062012,25.823242z"/>
   <path fill="#ce5c00" stroke-width="3" stroke-linecap="round" stroke-linejoin="round" stroke-miterlimit="4" stroke-dashoffset="0" d="m2103.269043,6187.96582c-13.694336,8.501953 -47.484863,0.725586 -66.662109,3.53418c-19.812012,2.902344 -41.197266,26.479492 -61.272461,23.032227c-19.433105,-3.336914 -31.859375,-29.597656 -46.051758,-37.849609c-14.662109,-8.525391 -44.435059,-6.81543 -50.819824,-18.25c-6.180664,-11.067383 20.21875,-29 25.522461,-40.203125c5.480469,-11.574219 -8.62793,-31.05957 6.141602,-39.31543c14.295898,-7.991211 45.848633,3.114258 64.78125,0.023438c19.55957,-3.192383 40.430664,-22.385742 60.660645,-19.544922c19.582031,2.749023 32.49707,22.443359 46.850586,30.362305c14.828613,8.180664 54.771484,10.594727 61.55957,21.736328c6.571289,10.785156 -33.624023,23.415039 -37.67334,34.740234c-4.183594,11.699219 11.11084,32.952148 -3.036621,41.734375z" id="path7693"/>
   <path fill="#3465a4" stroke-width="3" stroke-linecap="round" stroke-linejoin="round" stroke-miterlimit="4" stroke-dashoffset="0" id="path7695" d="m2310.887207,6066.228516c-11.32666,6.694336 -43.375,-0.201172 -59.412598,3.170898c-16.038574,3.371094 -43.92041,19.568359 -61.240234,17.65918c-17.319824,-1.910156 -27.262207,-18.186523 -41.426758,-23.71875c-14.165039,-5.53125 -41.762695,-6.245117 -48.298828,-14.461914c-6.536621,-8.217773 10.384277,-24.808594 14.000488,-33.407227c3.615723,-8.598633 -7.474609,-23.898438 3.768555,-30.864258c11.242676,-6.966797 44.219727,-5.311523 60.911133,-7.945313c16.691895,-2.632813 36.23291,-14.06543 53.730469,-12.614258c17.497559,1.451172 32.683594,15.692383 46.910645,21.020508c14.227539,5.329102 43.162598,10.036133 50.325195,18.21582c7.162109,8.178711 -12.081055,18.670898 -14.374512,27.462891c-2.293945,8.791992 6.433594,28.788086 -4.893555,35.482422z"/>
   <path fill="#fcaf3e" stroke-width="3" stroke-linecap="round" stroke-linejoin="round" stroke-miterlimit="4" stroke-dashoffset="0" id="path7697" d="m2503.399902,6163.813477c-13.560059,7.400391 -52.443848,-3.648438 -71.165527,0.298828c-18.722168,3.946289 -57.173828,25.126953 -77.689941,22.675781c-20.51709,-2.452148 -30.865723,-21.908203 -48.109863,-28.038086c-17.244141,-6.129883 -47.831543,-5.294922 -55.851074,-14.449219c-8.02002,-9.154297 10.583008,-30.575195 15.403809,-40.106445c4.820313,-9.532227 -9.176758,-26.962891 4.225586,-34.854492c13.402344,-7.891602 54.089355,-6.294922 74.042969,-8.919922c19.953125,-2.624023 42.384766,-15.192383 63.270508,-13.566406c20.885742,1.625977 41.290527,17.407227 58.638672,23.167969c17.349121,5.760742 50.522461,12.151367 59.742188,21.224609c9.220215,9.073242 -13.829102,19.492188 -16.120605,29.375c-2.291504,9.882813 7.174805,35.791992 -6.386719,43.192383z"/>
   <path fill="#cc0000" stroke-width="3" stroke-linecap="round" stroke-linejoin="round" stroke-miterlimit="4" stroke-dashoffset="0" id="path7699" d="m2789.263672,6150.397461c-16.25293,10.447266 -56.355469,0.890625 -79.115234,4.342773c-23.512695,3.56543 -48.89209,32.538086 -72.717773,28.302734c-23.063477,-4.100586 -37.811035,-36.371094 -54.654297,-46.511719c-17.401367,-10.475586 -52.734863,-8.375 -60.3125,-22.425781c-7.335449,-13.601563 23.995605,-35.637695 30.290527,-49.405273c6.50293,-14.222656 -10.239746,-38.166992 7.287598,-48.311523c16.967285,-9.820313 54.413086,3.826172 76.883301,0.02832c23.212402,-3.922852 47.98291,-27.508789 71.991699,-24.018555c23.240234,3.378906 38.566895,27.580078 55.601563,37.311523c17.599609,10.052734 65.00293,13.018555 73.05957,26.710938c7.798828,13.253906 -39.905273,28.773438 -44.711426,42.69043c-4.964355,14.376953 13.186523,40.493164 -3.603027,51.286133z"/>
   <path fill="#fcaf3e" stroke-width="3" stroke-linecap="round" stroke-linejoin="round" stroke-miterlimit="4" stroke-dashoffset="0" d="m2553.974121,6442.49707c-15.810059,8.716797 -61.141113,-4.296875 -82.966797,0.351563c-21.826172,4.649414 -66.655273,29.597656 -90.573242,26.709961c-23.918457,-2.887695 -35.983887,-25.805664 -56.087402,-33.025391c-20.103027,-7.220703 -55.763184,-6.237305 -65.112793,-17.019531c-9.349609,-10.783203 12.338867,-36.014648 17.958496,-47.241211c5.619141,-11.227539 -10.698242,-31.758789 4.926758,-41.054688c15.624512,-9.295898 63.058105,-7.415039 86.320801,-10.506836c23.262207,-3.09082 49.412598,-17.894531 73.762207,-15.979492c24.348633,1.915039 48.136719,20.50293 68.362793,27.289063c20.225586,6.786133 58.899414,14.313477 69.648438,25c10.749023,10.686523 -16.123535,22.958984 -18.794922,34.600586c-2.671387,11.641602 8.365234,42.15918 -7.444336,50.875977z" id="path7701"/>
   <path fill="#ad7fa8" stroke-width="3" stroke-linecap="round" stroke-linejoin="round" stroke-miterlimit="4" stroke-dashoffset="0" d="m3089.893066,6349.769531c-14.970215,9.404297 -57.327637,-0.282227 -78.524414,4.454102c-21.196777,4.736328 -58.04834,27.489258 -80.938965,24.806641c-22.891113,-2.681641 -36.032227,-25.546875 -54.753418,-33.318359c-18.721191,-7.770508 -55.196777,-8.773438 -63.835449,-20.316406c-8.63916,-11.543945 13.725098,-34.850586 18.504395,-46.929688c4.779297,-12.079102 -9.878906,-33.571289 4.980957,-43.358398c14.859863,-9.786133 58.443848,-7.460938 80.505371,-11.160156c22.061035,-3.699219 47.887207,-19.758789 71.01416,-17.720703c23.125977,2.038086 43.196777,22.043945 62,29.530273c18.803711,7.485352 57.046387,14.097656 66.513672,25.587891c9.466797,11.490234 -15.966797,26.229492 -18.998535,38.580078c-3.03125,12.350586 8.50293,40.441406 -6.467773,49.844727z" id="path7703"/>
   <path fill="#f57900" stroke-width="3" stroke-linecap="round" stroke-linejoin="round" stroke-miterlimit="4" stroke-dashoffset="0" id="path7705" d="m2892.248535,6479.311523c-18.32373,10.305664 -53.313477,12.183594 -79.331543,15.796875c-26.01709,3.612305 -64.110352,20.94043 -89.725098,16.707031c-25.614746,-4.232422 -48.950195,-25.083008 -67.604492,-35.015625c-18.653809,-9.931641 -52.508301,-20.024414 -60.403809,-33.623047c-7.895996,-13.599609 17.486328,-34.542969 23.680176,-47.96582c6.193848,-13.421875 -0.944824,-39.652344 18.160645,-49.329102c19.106445,-9.676758 66.201172,-3.726563 91.038086,-8.054688c24.837402,-4.328125 48.897949,-19.345703 74.725098,-15.831055c25.82666,3.514648 49.035645,24.648438 67.604004,35.016602c18.568359,10.367188 67.23291,15.472656 75.652344,28.728516c8.418945,13.255859 -17.783691,35.091797 -24.736816,48.326172c-6.952148,13.233398 -10.73584,34.9375 -29.058594,45.244141z"/>
   <path fill="#fcc916" stroke-width="3" stroke-linecap="round" stroke-linejoin="round" stroke-miterlimit="4" stroke-dashoffset="0" id="path7707" d="m2532.626465,5869.885742c-13.387207,6.999023 -51.774902,-3.449219 -70.257813,0.283203c-18.483398,3.732422 -56.444824,23.764648 -76.699219,21.445313c-20.254883,-2.318359 -30.47168,-20.719727 -47.496094,-26.517578c-17.023926,-5.796875 -47.221191,-5.006836 -55.138672,-13.665039c-7.91748,-8.658203 10.448242,-28.916992 15.20752,-37.932617c4.758789,-9.014648 -9.05957,-25.5 4.171387,-32.963867c13.231445,-7.464844 53.399902,-5.954102 73.098633,-8.436523c19.69873,-2.482422 41.844238,-14.368164 62.463379,-12.831055c20.619629,1.538086 40.76416,16.462891 57.891113,21.912109c17.127441,5.448242 49.877441,11.492188 58.97998,20.073242c9.102539,8.581055 -13.652832,18.435547 -15.915039,27.782227c-2.262207,9.347656 7.083008,33.851563 -6.305176,40.850586z"/>
   <path fill="#ce5c00" stroke-width="3" stroke-linecap="round" stroke-linejoin="round" stroke-miterlimit="4" stroke-dashoffset="0" d="m2011.294922,5679.761719c-10.953613,5.972656 -37.981445,0.508789 -53.320801,2.482422c-15.84668,2.038086 -32.951172,18.601563 -49.009277,16.179688c-15.543457,-2.34375 -25.48291,-20.791992 -36.834961,-26.588867c-11.727539,-5.989258 -35.541504,-4.788086 -40.648438,-12.820313c-4.943848,-7.775391 16.172363,-20.373047 20.414551,-28.243164c4.382813,-8.129883 -6.900879,-21.818359 4.912109,-27.618164c11.435059,-5.614258 36.672363,2.1875 51.816406,0.016602c15.644531,-2.243164 32.338379,-15.725586 48.519531,-13.730469c15.663086,1.931641 25.993164,15.766602 37.474121,21.329102c11.86084,5.74707 43.808594,7.442383 49.239258,15.269531c5.255859,7.577148 -26.89502,16.449219 -30.133789,24.405273c-3.346191,8.21875 8.887207,23.148438 -2.428711,29.318359z" id="path7709"/>
   <path fill="#ce5c00" stroke-width="3" stroke-linecap="round" stroke-linejoin="round" stroke-miterlimit="4" stroke-dashoffset="0" id="path7711" d="m2742.029297,6285.333984c-17.166504,7.762695 -59.522949,0.662109 -83.5625,3.226563c-24.833984,2.649414 -51.640137,24.175781 -76.805176,21.02832c-24.360352,-3.045898 -39.937012,-27.022461 -57.726563,-34.556641c-18.379883,-7.78418 -55.699219,-6.223633 -63.703125,-16.662109c-7.747559,-10.105469 25.344727,-26.478516 31.993164,-36.707031c6.868652,-10.567383 -10.81543,-28.357422 7.697266,-35.895508c17.921387,-7.295898 57.472168,2.84375 81.205566,0.021484c24.51709,-2.915039 50.679688,-20.438477 76.038574,-17.844727c24.546387,2.509766 40.734863,20.491211 58.727051,27.720703c18.588379,7.469727 68.656738,9.672852 77.166016,19.845703c8.237305,9.847656 -42.148438,21.378906 -47.224609,31.71875c-5.243164,10.681641 13.927734,30.084961 -3.805664,38.104492z"/>
   <path fill="#f57900" stroke-width="3" stroke-linecap="round" stroke-linejoin="round" stroke-miterlimit="4" stroke-dashoffset="0" d="m2343.437988,6271.214844c-13.145996,8.696289 -45.583984,0.741211 -63.993652,3.615234c-19.019043,2.967773 -39.547852,27.084961 -58.819824,23.558594c-18.655273,-3.413086 -30.583984,-30.274414 -44.208496,-38.71582c-14.075195,-8.719727 -42.655762,-6.97168 -48.785645,-18.666992c-5.933105,-11.321289 19.409668,-29.665039 24.501465,-41.124023c5.260742,-11.838867 -8.282715,-31.770508 5.895508,-40.214844c13.723633,-8.174805 44.013184,3.185547 62.188477,0.024414c18.776367,-3.265625 38.812012,-22.898438 58.232422,-19.993164c18.797852,2.8125 31.196289,22.957031 44.975098,31.057617c14.234863,8.368164 52.579102,10.836914 59.095215,22.233398c6.308594,11.032227 -32.27832,23.951172 -36.165527,35.535156c-4.015625,11.967773 10.666504,33.706055 -2.915039,42.69043z" id="path7713"/>
   <path fill="#ad7fa8" stroke-width="3" stroke-linecap="round" stroke-linejoin="round" stroke-miterlimit="4" stroke-dashoffset="0" id="path7715" d="m2603.809082,6021.605469c-13.744629,8.410156 -52.633301,-0.251953 -72.094238,3.983398c-19.461426,4.236328 -53.294922,24.585938 -74.311523,22.186523c-21.016602,-2.399414 -33.081055,-22.848633 -50.269043,-29.797852c-17.188477,-6.950195 -50.676758,-7.847656 -58.608398,-18.170898c-7.931152,-10.323242 12.601074,-31.167969 16.989258,-41.970703c4.387695,-10.802734 -9.069824,-30.024414 4.573242,-38.777344c13.64209,-8.751953 53.657715,-6.672852 73.912109,-9.981445c20.254395,-3.308594 43.966309,-17.670898 65.19873,-15.847656c21.232422,1.822266 39.659668,19.713867 56.923828,26.40918c17.263672,6.695313 52.374512,12.608398 61.065918,22.884766c8.691406,10.276367 -14.65918,23.458008 -17.441895,34.503906c-2.783691,11.045898 7.806641,36.167969 -5.937988,44.578125z"/>
   <path fill="#f57900" stroke-width="3" stroke-linecap="round" stroke-linejoin="round" stroke-miterlimit="4" stroke-dashoffset="0" d="m2125.149414,5770.389648c-10.758301,5.881836 -31.302246,6.953125 -46.578613,9.015625c-15.276855,2.0625 -37.642578,11.952148 -52.682617,9.536133c-15.039063,-2.416016 -28.740723,-14.316406 -39.693848,-19.985352c-10.952637,-5.668945 -30.830078,-11.428711 -35.46582,-19.19043c-4.635742,-7.761719 10.26709,-19.71582 13.903809,-27.375977c3.637207,-7.661133 -0.554688,-22.632813 10.663574,-28.155273c11.218262,-5.523438 38.869629,-2.126953 53.452148,-4.597656c14.583008,-2.469727 28.710449,-11.041016 43.874512,-9.035156c15.164063,2.005859 28.791016,14.068359 39.693359,19.985352c10.902832,5.917969 39.476074,8.832031 44.418945,16.397461c4.943359,7.566406 -10.441406,20.029297 -14.523438,27.582031c-4.08252,7.552734 -6.303223,19.94043 -17.062012,25.823242z" id="path7717"/>
   <path fill="#fcaf3e" stroke-width="3" stroke-linecap="round" stroke-linejoin="round" stroke-miterlimit="4" stroke-dashoffset="0" d="m2093.706543,5994.12793c-9.891113,6.602539 -38.253418,-3.254883 -51.90918,0.266602c-13.65625,3.521484 -41.703613,22.417969 -56.668457,20.230469c-14.965332,-2.1875 -22.513672,-19.545898 -35.091797,-25.014648c-12.578125,-5.46875 -34.88916,-4.723633 -40.73877,-12.890625c-5.850098,-8.167969 7.719727,-27.279297 11.23584,-35.783203c3.516113,-8.503906 -6.693359,-24.054688 3.082031,-31.095703c9.775879,-7.041016 39.454102,-5.617188 54.008301,-7.958008c14.554199,-2.341797 30.916016,-13.554688 46.150391,-12.104492c15.234375,1.451172 30.118164,15.530273 42.771973,20.669922c12.654785,5.140625 36.851563,10.841797 43.57666,18.936523c6.725586,8.094727 -10.087402,17.390625 -11.758789,26.208008c-1.671387,8.817383 5.233398,31.932617 -4.658203,38.535156z" id="path7719"/>
  </g>
  <path opacity="0.698" fill="#1e9e00" stroke-width="3" stroke-linecap="round" stroke-linejoin="round" stroke-miterlimit="4" stroke-dashoffset="0" id="path7788" d="m2256.443604,983.5979c1.522949,0.316284 1.903809,1.04248 3.182617,2.128418c1.664063,1.863647 5.03418,7.445068 4.655029,8.357666c-0.502686,1.644043 -4.736816,-7.671753 -7.837646,-10.486084zm28.590332,4.063965c-3.614258,6.716309 -3.95459,7.219482 -6.773438,7.12207c0.598633,-1.23938 2.317383,-2.248657 3.523438,-3.42627c1.285156,-1.255371 1.983887,-3.602905 3.25,-3.695801zm-12.70459,0.244873c4.11377,4.388306 4.553223,5.96875 3.860352,6.462891c-1.26709,0.477051 -0.990479,-0.767944 -3.860352,-6.462891zm-7.696045,0.94104c1.012695,-0.168335 1.750488,1.351563 2.153076,2.594727c1.027832,3.174316 1.039551,2.716187 0.34668,2.985229c-0.955322,0.37085 -0.949219,-2.868042 -2.499756,-5.579956zm-6.811768,-0.291504c1.059814,0.031006 1.611328,1.316895 2.354492,2.503784c0.746582,2.263184 2.919434,3.669067 1.386963,3.755005c-1.523682,0.085571 -2.577881,-3.57251 -3.741455,-6.258789zm11.36084,0.870605c3.342773,3.63916 4.057861,4.755371 2.715332,4.90564c-0.865723,0.096802 -0.934082,-0.792358 -1.922363,-2.287598c-0.636719,-0.963013 -1.430176,-1.806885 -0.792969,-2.618042z"/>
 </g>
</svg>